<?xml version="1.0" standalone="no"?>
<!DOCTYPE svg PUBLIC "-//W3C//DTD SVG 20010904//EN"
 "http://www.w3.org/TR/2001/REC-SVG-20010904/DTD/svg10.dtd">
<svg version="1.0" xmlns="http://www.w3.org/2000/svg"
 width="1024.000000pt" height="1024.000000pt" viewBox="0 0 1024.000000 1024.000000"
 preserveAspectRatio="xMidYMid meet">

<g transform="translate(0.000000,1024.000000) scale(0.100000,-0.100000)"
fill="#000000" stroke="none">
<path d="M4368 7497 l-138 -135 0 -215 0 -215 -152 -4 c-144 -3 -156 -5 -210
-31 -32 -16 -71 -45 -88 -65 -58 -70 -60 -89 -60 -496 0 -339 2 -375 19 -412
23 -51 90 -108 144 -123 31 -9 369 -11 1292 -9 l1250 3 42 22 c60 33 101 81
119 140 12 43 14 112 12 410 l-3 358 -27 51 c-15 29 -46 68 -70 88 -61 52
-118 66 -275 66 l-133 0 0 215 0 216 -108 117 c-60 64 -117 124 -127 132 -16
14 -26 6 -127 -100 l-110 -115 -109 113 c-60 61 -113 112 -118 112 -5 0 -55
-50 -112 -111 l-103 -111 -96 99 c-52 54 -102 104 -111 111 -15 11 -30 -1
-115 -88 -55 -56 -100 -106 -102 -111 -7 -19 -25 -5 -134 107 l-113 115 -137
-134z m1324 -290 l88 88 0 -512 0 -511 28 -6 c15 -2 83 -4 152 -3 l125 2 2
170 2 170 90 3 91 3 0 -253 0 -253 -1107 2 -1108 3 -3 250 -2 251 87 -3 88 -3
5 -170 5 -170 130 -3 c72 -1 140 0 153 3 l22 5 0 528 0 527 104 -104 104 -103
106 106 c58 58 109 106 113 106 4 0 53 -47 109 -105 l100 -106 107 109 107
109 107 -109 107 -108 88 87z"/>
<path d="M4760 6910 c-26 -26 -26 -74 0 -100 20 -20 30 -21 406 -18 l386 3 19
24 c26 31 24 57 -6 86 l-24 25 -381 0 c-367 0 -381 -1 -400 -20z"/>
<path d="M4757 6532 c-24 -26 -21 -75 4 -98 19 -17 43 -19 400 -19 365 0 379
1 398 20 31 32 34 59 10 88 l-20 27 -388 0 c-363 0 -389 -1 -404 -18z"/>
<path d="M3487 6159 c-101 -24 -180 -89 -223 -184 -29 -62 -109 -401 -269
-1130 l-66 -300 3 -340 3 -340 34 -70 c64 -130 166 -204 306 -225 96 -13 3654
-13 3750 0 177 26 304 141 350 317 12 44 15 122 15 346 0 253 -3 301 -20 376
-11 47 -45 201 -76 341 -30 140 -73 329 -95 420 -21 91 -57 244 -80 340 -22
96 -47 196 -56 223 -44 139 -178 237 -325 237 l-49 0 7 -37 c10 -61 48 -236
124 -573 183 -810 220 -977 220 -1001 0 -15 -11 -38 -26 -53 l-27 -26 -1831 0
c-1827 0 -1832 0 -1854 20 -12 11 -25 32 -28 46 -6 23 52 293 208 964 69 299
125 556 133 613 l6 47 -48 -1 c-26 -1 -65 -5 -86 -10z m3063 -2014 c57 -30 90
-84 90 -152 0 -147 -185 -215 -287 -107 -65 69 -64 162 2 229 54 53 126 65
195 30z m-1702 -91 c28 -19 30 -69 4 -83 -14 -7 -1054 -18 -1169 -12 -20 1
-43 31 -43 56 0 55 -5 55 615 55 500 0 573 -2 593 -16z"/>
<path d="M3845 5663 c-36 -9 -64 -45 -74 -95 -15 -67 -14 -75 9 -98 18 -18 33
-20 139 -20 112 0 122 2 147 24 24 20 28 32 32 87 6 97 -3 104 -130 106 -57 1
-112 -1 -123 -4z"/>
<path d="M4443 5660 c-36 -15 -54 -54 -56 -120 -3 -85 5 -90 154 -90 110 0
120 2 145 24 24 20 28 33 32 87 6 93 -8 103 -147 106 -58 2 -116 -2 -128 -7z"/>
<path d="M5039 5659 c-34 -13 -49 -47 -49 -113 0 -42 5 -57 23 -74 21 -20 34
-22 144 -22 153 0 165 7 165 97 0 70 -13 100 -48 113 -32 13 -201 11 -235 -1z"/>
<path d="M5650 5663 c-37 -14 -50 -36 -50 -83 0 -59 16 -107 40 -120 10 -6 70
-10 132 -10 152 0 162 6 156 101 -6 103 -19 113 -156 116 -59 1 -114 0 -122
-4z"/>
<path d="M6234 5645 c-22 -22 -24 -30 -18 -77 14 -108 27 -117 180 -118 149 0
160 7 151 96 -7 64 -27 101 -63 114 -14 6 -70 10 -125 10 -93 0 -102 -2 -125
-25z"/>
<path d="M3775 5330 c-46 -18 -66 -54 -72 -129 -9 -107 -3 -111 157 -111 172
0 178 5 195 147 6 47 4 55 -19 78 -24 24 -30 25 -133 24 -59 0 -117 -4 -128
-9z"/>
<path d="M4403 5330 c-34 -14 -51 -49 -59 -120 -5 -57 -4 -68 16 -92 l21 -28
133 0 c127 0 133 1 155 24 18 19 24 40 28 99 5 71 4 77 -20 101 -25 25 -30 26
-139 25 -62 0 -123 -4 -135 -9z"/>
<path d="M5009 5311 c-26 -27 -29 -35 -29 -99 0 -55 4 -75 21 -96 20 -26 22
-26 153 -26 126 0 134 1 154 23 19 20 22 35 22 98 -1 115 -20 129 -180 129
-110 0 -112 0 -141 -29z"/>
<path d="M5655 5328 c-31 -18 -35 -28 -35 -101 0 -71 17 -120 45 -131 9 -3 72
-6 139 -6 117 0 124 1 146 25 21 22 22 31 18 97 -5 65 -9 75 -37 100 -30 27
-35 28 -144 28 -64 0 -120 -5 -132 -12z"/>
<path d="M6286 5319 c-21 -16 -26 -29 -26 -62 1 -63 16 -116 41 -143 21 -23
28 -24 151 -24 117 0 130 2 149 21 19 19 21 29 15 82 -7 68 -31 116 -67 134
-14 8 -66 13 -130 13 -93 0 -110 -3 -133 -21z"/>
<path d="M4457 4963 c-68 -3 -106 -9 -123 -19 -30 -20 -44 -70 -44 -155 0 -56
4 -70 25 -93 24 -26 26 -26 155 -26 l130 0 36 33 c33 31 35 36 41 117 5 81 4
87 -18 112 -28 31 -59 36 -202 31z"/>
<path d="M6455 4963 c-144 -5 -149 -9 -142 -119 5 -87 23 -135 62 -160 19 -13
48 -15 155 -12 126 3 132 4 151 28 17 22 19 35 15 99 -7 82 -20 116 -56 142
-32 23 -53 26 -185 22z"/>
<path d="M3661 4932 c-23 -22 -30 -42 -39 -105 -15 -99 -16 -90 14 -126 l26
-31 128 0 c114 0 130 2 154 21 37 29 45 48 56 135 10 76 4 108 -24 126 -6 4
-73 8 -149 8 -138 0 -139 0 -166 -28z"/>
<path d="M4999 4947 c-30 -23 -39 -56 -39 -137 0 -77 2 -83 29 -111 l29 -29
135 0 c132 0 135 0 161 27 35 34 40 59 31 146 -11 113 -17 117 -189 117 -95
-1 -146 -5 -157 -13z"/>
<path d="M5655 4935 c-27 -26 -29 -44 -19 -144 6 -49 13 -68 34 -92 l28 -29
134 0 c89 1 138 5 148 13 34 26 50 61 45 96 -2 20 -7 58 -10 85 -5 34 -14 55
-32 72 -25 23 -32 24 -165 24 -134 0 -140 -1 -163 -25z"/>
<path d="M5032 3199 c-126 -24 -266 -139 -322 -263 -86 -189 -54 -386 88 -538
91 -97 225 -158 347 -158 61 0 167 26 230 55 178 85 296 307 265 500 -32 198
-165 353 -345 399 -63 17 -192 19 -263 5z m217 -258 c44 -23 98 -81 117 -127
8 -19 14 -59 14 -90 0 -173 -193 -287 -337 -198 -69 43 -106 100 -111 174 -8
112 34 196 120 239 56 28 144 28 197 2z"/>
<path d="M3886 3186 c-39 -15 -55 -31 -68 -71 -11 -35 -9 -747 3 -788 28 -101
193 -102 235 -2 9 22 14 69 14 129 l0 94 123 4 c146 5 203 25 268 95 63 68 84
123 84 218 0 67 -5 89 -28 137 -34 70 -119 150 -184 173 -68 24 -390 32 -447
11z m374 -253 c16 -16 33 -42 36 -60 5 -27 1 -37 -24 -63 -29 -29 -34 -30
-116 -30 l-86 0 0 90 0 90 80 0 c73 0 82 -2 110 -27z"/>
<path d="M5984 3180 c-209 -68 -282 -323 -135 -470 56 -56 128 -86 245 -102
97 -13 134 -30 142 -65 8 -32 -22 -59 -78 -68 -46 -8 -78 -2 -190 36 -94 32
-119 30 -165 -13 -34 -32 -32 -106 3 -148 86 -101 324 -135 498 -70 68 26 139
93 166 156 28 65 27 155 -4 220 -43 91 -128 141 -281 164 -117 16 -141 26
-155 61 -12 28 -11 32 15 59 26 27 35 30 89 30 39 0 77 -8 105 -20 24 -11 54
-20 68 -20 43 0 90 29 108 67 30 64 -3 126 -92 169 -49 24 -70 28 -167 31 -90
3 -123 -1 -172 -17z"/>
</g>
</svg>
